<?xml version="1.0" encoding="UTF-8" standalone="no"?>
<!-- Created with Inkscape (http://www.inkscape.org/) -->

<svg
   width="141.09584mm"
   height="34.530937mm"
   viewBox="0 0 141.09584 34.530938"
   version="1.1"
   id="svg5"
   inkscape:version="1.1.2 (0a00cf5, 2022-02-04)"
   sodipodi:docname="white.svg"
   xmlns:inkscape="http://www.inkscape.org/namespaces/inkscape"
   xmlns:sodipodi="http://sodipodi.sourceforge.net/DTD/sodipodi-0.dtd"
   xmlns="http://www.w3.org/2000/svg"
   xmlns:svg="http://www.w3.org/2000/svg">
  <sodipodi:namedview
     id="namedview7"
     pagecolor="#222222"
     bordercolor="#eeeeee"
     borderopacity="1"
     inkscape:pageshadow="0"
     inkscape:pageopacity="0"
     inkscape:pagecheckerboard="0"
     inkscape:document-units="mm"
     showgrid="false"
     fit-margin-top="0"
     fit-margin-left="0"
     fit-margin-right="0"
     fit-margin-bottom="0"
     showguides="true"
     inkscape:guide-bbox="true"
     inkscape:zoom="1.4495689"
     inkscape:cx="222.135"
     inkscape:cy="137.28219"
     inkscape:window-width="1920"
     inkscape:window-height="1045"
     inkscape:window-x="1920"
     inkscape:window-y="0"
     inkscape:window-maximized="1"
     inkscape:current-layer="layer1" />
  <defs
     id="defs2" />
  <g
     inkscape:label="Layer 1"
     inkscape:groupmode="layer"
     id="layer1"
     transform="translate(-42.644623,-131.40203)"
     style="display:inline">
    <g
       id="g14039"
       transform="translate(-31.577362,-70.507503)">
      <g
         aria-label="oriOn"
         id="text3632"
         style="font-size:39.0735px;line-height:1.25;font-family:FreeSans;-inkscape-font-specification:'FreeSans, Normal';font-variant-ligatures:none;fill:#ffffff;fill-opacity:1;stroke-width:1.62806"
         transform="translate(-3.4514404,54.407366)">
        <path
           d="m 99.149872,156.19836 c -0.234441,-0.1563 -0.468882,-0.31259 -0.742396,-0.46888 -1.523867,-0.82055 -3.125881,-1.3285 -4.766968,-1.56294 0,0 0,0 0,0 -0.547029,-0.0781 -1.133131,-0.11723 -1.719234,-0.11723 -0.11722,0 -0.234441,-0.0391 -0.390735,0 v 0 c -2.109969,0 -4.219938,0.50796 -6.095466,1.44572 -0.03907,0.0391 -0.07815,0.0391 -0.156294,0.0781 -1.406646,0.7424 -2.696072,1.68016 -3.829203,2.89144 -0.03907,0.0391 -0.07815,0.11722 -0.117221,0.15629 -0.742396,0.78147 -1.406646,1.68017 -1.953675,2.69608 -0.547029,1.01591 -0.976837,2.07089 -1.250352,3.16495 -1.328499,5.04048 0.312588,10.43262 4.141791,13.94924 0.820544,0.70332 1.719234,1.36757 2.696072,1.87553 5.821952,3.20403 12.933329,1.79738 17.192339,-2.96959 0.66425,-0.74239 1.28943,-1.64109 1.79738,-2.57885 3.59476,-6.52527 1.40665,-14.65256 -4.806038,-18.55991 z m -1.172205,15.27774 c -1.875528,3.47754 -6.25176,4.76696 -9.729302,2.85236 -3.477541,-1.87553 -4.766967,-6.25176 -2.852365,-9.7293 0,-0.0782 0.03907,-0.15629 0.07815,-0.19537 0.03907,-0.0391 0.03907,-0.0781 0.07815,-0.11722 0.156294,-0.27351 0.351661,-0.54703 0.547029,-0.78147 0.11722,-0.11722 0.234441,-0.27351 0.351661,-0.39073 1.953675,-2.10997 5.079555,-2.85237 7.8147,-1.79738 0.312588,0.11722 0.586103,0.27351 0.859617,0.4298 3.477542,1.87553 4.766968,6.25177 2.852366,9.72931 z"
           style="font-family:Fattern;-inkscape-font-specification:Fattern;fill:#ffffff;fill-opacity:1"
           id="path11904" />
        <path
           d="m 130.56492,179.56431 c 0,0 0,0 0,-0.0391 0.0391,-0.0391 0.0781,-0.0781 0.11722,-0.1563 0,0 0,0 0,0 0.0391,-0.11722 0.11722,-0.23444 0.15629,-0.35166 0,-0.0391 0,-0.0391 0,-0.0391 0.0391,-0.0391 0.0391,-0.11722 0.0782,-0.1563 0,0 0,-0.0391 0,-0.0391 0,-0.0391 0.0391,-0.11722 0.0391,-0.15629 0,-0.0391 0,-0.0391 0,-0.0391 0.0391,-0.11722 0.0391,-0.23444 0.0781,-0.39073 0,0 0,0 0,0 0,-0.0391 0,-0.11722 0,-0.19537 0,0 0,0 0,0 0.0391,-0.27351 0,-0.54703 -0.0391,-0.82054 0,0 0,0 0,0 -0.0391,-0.11722 -0.0391,-0.23444 -0.0781,-0.35166 0,0 0,0 0,0 -0.0391,-0.0391 -0.0391,-0.0781 -0.0782,-0.1563 -0.0391,-0.15629 -0.11722,-0.31259 -0.19536,-0.46888 0,0 0,0 0,0 -0.0391,-0.0781 -0.0781,-0.15629 -0.11722,-0.23444 -0.0391,0 -0.0391,-0.0391 -0.0391,-0.0391 -0.0391,-0.0781 -0.0781,-0.11722 -0.15629,-0.19537 l -0.93776,-1.21128 -0.11723,-0.19537 -0.23444,-0.23444 -0.46888,-0.66425 -0.11722,-0.15629 -1.21128,-1.52387 -0.23444,-0.31259 c 2.42256,-1.68016 4.02457,-4.45438 4.02457,-7.61933 0,-0.0391 0,-0.0781 0,-0.11722 0,-1.48479 -0.39073,-2.89144 -1.01591,-4.10272 -0.42981,-0.82054 -0.97684,-1.56294 -1.60201,-2.18811 -0.89869,-0.93777 -2.03182,-1.68016 -3.28218,-2.18812 -0.5861,-0.19537 -1.1722,-0.35166 -1.79738,-0.46888 -0.46888,-0.0782 -0.97684,-0.11722 -1.48479,-0.11722 h -9.49486 c -1.87553,0 -3.3994,1.52386 -3.3994,3.39939 V 177.806 c 0,0.0781 0,0.19537 0,0.27352 0,0.11722 0,0.19537 0.0391,0.31259 0,0.0391 0,0.0781 0,0.11722 0,0 0.0391,0.0391 0.0391,0.0391 0,0.0391 0,0.0782 0,0.11722 0,0 0,0.0391 0.0391,0.0391 0,0.0391 0,0.0781 0,0.11722 0,0 0.0391,0.0391 0.0391,0.0391 0,0.0391 0,0.0782 0.0391,0.0782 0,0.0391 0,0.0781 0,0.0781 0,0.0391 0.0391,0.0781 0.0391,0.0781 0,0.0391 0,0.0391 0.0391,0.0781 0,0.0391 0,0.0391 0.0391,0.0781 0,0.0391 0,0.0391 0,0.0781 0.0391,0 0.0391,0.0391 0.0391,0.0781 0.0391,0 0.0391,0.0391 0.0391,0.0391 0.0391,0.0391 0.0391,0.0781 0.0391,0.0781 0.0391,0.0391 0.0391,0.0391 0.0391,0.0781 0.0391,0 0.0391,0.0391 0.0781,0.0782 0,0 0,0.0391 0,0.0391 0.0391,0.0391 0.0781,0.0781 0.11722,0.11722 0,0.0391 0,0.0391 0.0391,0.0781 0,0 0.0391,0.0391 0.0391,0.0391 0.0391,0.0391 0.0391,0.0391 0.0391,0.0781 0.0391,0 0.0391,0.0391 0.0781,0.0782 0,0 0.0391,0 0.0391,0.0391 0.0391,0 0.0391,0.0391 0.0782,0.0391 0,0.0391 0,0.0391 0.0391,0.0781 0,0 0.0391,0.0391 0.0391,0.0391 0.0391,0.0391 0.0391,0.0391 0.0782,0.0391 0,0.0391 0.0391,0.0391 0.0391,0.0782 0.0391,0 0.0391,0.0391 0.0781,0.0391 0,0.0391 0.0391,0.0391 0.0781,0.0391 0,0.0391 0.0391,0.0391 0.0391,0.0781 0.0391,0 0.0391,0 0.0781,0.0391 0,0 0.0391,0.0391 0.0391,0.0391 0.0391,0 0.0781,0.0391 0.0781,0.0391 0.0391,0 0.0391,0.0391 0.0781,0.0391 0.0391,0.0391 0.0781,0.0391 0.0781,0.0781 0.0391,0 0.0391,0 0.0391,0 0.0391,0.0391 0.11722,0.0391 0.1563,0.0781 0,0 0.0391,0 0.0391,0 0.0391,0.0391 0.0781,0.0391 0.0781,0.0391 0.0391,0.0391 0.0391,0.0391 0.0781,0.0391 0.0391,0 0.0391,0.0391 0.0782,0.0391 0.0391,0 0.0391,0 0.0781,0.0391 0.0391,0 0.0391,0 0.0781,0 0.0391,0.0391 0.0391,0.0391 0.0781,0.0391 0.0391,0 0.0391,0 0.0782,0 0.0391,0.0391 0.0391,0.0391 0.0781,0.0391 0.0391,0 0.0391,0 0.0781,0 0.0391,0.0391 0.0391,0.0391 0.0781,0.0391 0.0391,0 0.0391,0 0.0782,0 0.0391,0 0.0391,0 0.0781,0.0391 0.0391,0 0.0782,0 0.11722,0 0,0 0.0391,0 0.0391,0 0.0391,0 0.0781,0 0.11722,0 0.0391,0 0.0391,0 0.0391,0 0.0782,0 0.11722,0 0.19537,0 0.0782,0 0.15629,0 0.23444,0 0,0 0.0391,0 0.0391,0 0.0782,0 0.1563,0 0.23444,-0.0391 0,0 0,0 0,0 0,0 0,0 0,0 0.31259,-0.0391 0.58611,-0.11723 0.82055,-0.23445 0.0391,0 0.0391,0 0.0391,0 0.0391,-0.0391 0.0782,-0.0391 0.1563,-0.0781 0,0 0,0 0.0391,0 0.0391,-0.0391 0.0781,-0.0391 0.11722,-0.0781 0,0 0,0 0.0391,0 0.0391,-0.0391 0.0781,-0.0781 0.11722,-0.0781 0,0 0,-0.0391 0.0391,-0.0391 0.0391,-0.0391 0.0781,-0.0391 0.11722,-0.0781 0,0 0,0 0,0 0.15629,-0.11722 0.27351,-0.23444 0.39073,-0.31259 0.19537,-0.19536 0.35166,-0.4298 0.50796,-0.66425 0,0 0,0 0,0 0.0391,-0.0391 0.0391,-0.0781 0.0781,-0.15629 0,0 0,0 0,0 0.0391,-0.0391 0.0391,-0.0781 0.0781,-0.11722 0,0 0,0 0,-0.0391 0.0391,-0.0391 0.0391,-0.0781 0.0782,-0.11722 0,0 0,0 0,0 0,-0.0781 0.0391,-0.11722 0.0391,-0.1563 0,0 0,0 0.0391,0 0,-0.0781 0,-0.11722 0.0391,-0.15629 0,0 0,0 0,-0.0391 0,-0.0391 0.0391,-0.0781 0.0391,-0.11722 0,0 0,0 0,-0.0391 0,-0.0391 0.0391,-0.0781 0.0391,-0.11722 0,0 0,-0.0391 0,-0.0391 0,-0.0391 0.0391,-0.0781 0.0391,-0.11722 0,-0.0391 0,-0.0391 0,-0.0391 0,-0.0391 0,-0.0781 0,-0.11722 0,-0.0391 0,-0.0391 0.0391,-0.0781 0,-0.0391 0,-0.0781 0,-0.11723 0,0 0,-0.0391 0,-0.0391 0,-0.0782 0,-0.11722 0,-0.19537 v -4.80604 h 3.86828 l 0.78147,1.01591 1.13313,1.4848 0.7424,0.93776 1.28942,1.68016 0.19537,0.27352 1.17221,1.52386 c 0.0391,0.0391 0.11722,0.11722 0.15629,0.1563 0,0.0391 0.0391,0.0391 0.0391,0.0781 0.0391,0.0391 0.0781,0.0781 0.11722,0.11722 0.0391,0 0.0391,0 0.0782,0.0391 0.0391,0.0391 0.0781,0.0781 0.11722,0.11722 0,0 0.0391,0 0.0391,0.0391 0.0781,0.0391 0.11722,0.0781 0.19536,0.11722 0,0 0,0 0,0 0.0391,0.0781 0.11722,0.11722 0.1563,0.1563 0.0391,0 0.0391,0 0.0781,0 0.0391,0.0391 0.0781,0.0781 0.1563,0.0781 0,0.0391 0.0391,0.0391 0.0391,0.0391 0.0391,0.0391 0.11722,0.0781 0.1563,0.0781 0.0391,0 0.0391,0 0.0391,0.0391 0.11722,0.0391 0.27351,0.0781 0.39073,0.11722 0.0781,0.0391 0.11722,0.0391 0.19537,0.0391 0.0391,0.0391 0.0391,0.0391 0.0782,0.0391 0.0391,0 0.0781,0 0.11722,0 0.0391,0 0.0782,0.0391 0.11722,0.0391 0.0391,0 0.0391,0 0.0391,0 0.0391,0 0.0782,0 0.11722,0 0.0782,0 0.19537,0 0.27352,0 0.15629,0 0.31259,0 0.46888,0 0,0 0,0 0,0 v 0 c 0.0782,-0.0391 0.11722,-0.0391 0.19537,-0.0391 0,0 0.0391,0 0.0391,0 0.0781,-0.0391 0.11722,-0.0391 0.19537,-0.0781 0,0 0,0 0.0391,0 0.11722,-0.0391 0.19537,-0.0781 0.31259,-0.11722 0.0391,0 0.0391,0 0.0781,0 0.0391,-0.0391 0.0781,-0.0391 0.11722,-0.0781 0.0391,0 0.0781,-0.0391 0.11722,-0.0391 0.0391,-0.0391 0.0781,-0.0391 0.0781,-0.0391 0.0782,-0.0391 0.11723,-0.0781 0.1563,-0.11722 0.0391,0 0.0391,0 0.0781,-0.0391 0.0781,-0.0391 0.15629,-0.0781 0.23444,-0.15629 0.0781,-0.0391 0.15629,-0.11722 0.19536,-0.19537 0,0 0,0 0,0 0.0781,-0.0391 0.11722,-0.0782 0.1563,-0.11722 0,0 0,0 0,0 0.11722,-0.1563 0.23444,-0.31259 0.35166,-0.46888 0,0 0,0 0.0391,0 0,-0.0391 0.0391,-0.11723 0.0781,-0.1563 z m -8.71339,-18.09103 c 1.3285,0 2.38348,1.05498 2.38348,2.34441 0,0.54703 -0.19536,1.05498 -0.50795,1.44572 -0.42981,0.54703 -1.09406,0.93776 -1.87553,0.93776 h -0.39074 c 0,0 -0.0391,0 -0.0391,0 0,0 -0.0391,0 -0.0781,0 -0.0391,0 -0.0391,0 -0.0391,0 h -5.54844 v -4.72789 z"
           style="font-family:Fattern;-inkscape-font-specification:Fattern;fill:#ffffff;fill-opacity:1"
           id="path11906" />
        <path
           d="m 138.067,154.63542 c -1.87553,0 -3.3994,1.52386 -3.3994,3.39939 V 177.806 c 0,1.87553 1.52387,3.3994 3.3994,3.3994 1.87552,0 3.39939,-1.52387 3.39939,-3.3994 v -19.77119 c 0,-1.87553 -1.52387,-3.39939 -3.39939,-3.39939 z"
           style="font-family:Fattern;-inkscape-font-specification:Fattern;fill:#ffffff;fill-opacity:1"
           id="path11908" />
        <path
           d="m 170.57615,160.30108 c -0.0782,-0.11723 -0.1563,-0.23445 -0.23445,-0.35167 -0.0391,-0.0391 -0.0391,-0.0391 -0.0391,-0.0391 -0.0781,-0.11722 -0.11722,-0.19537 -0.19537,-0.31259 -0.0391,0 -0.0391,-0.0391 -0.0391,-0.0391 -0.0781,-0.11722 -0.15629,-0.19537 -0.19537,-0.27352 -0.0391,0 -0.0391,-0.0391 -0.0781,-0.0781 -0.1563,-0.19537 -0.31259,-0.39074 -0.50796,-0.58611 0,-0.0391 0,-0.0391 0,-0.0391 -0.0781,-0.0781 -0.15629,-0.19537 -0.23444,-0.27351 -0.0391,0 -0.0391,-0.0391 -0.0781,-0.0391 -0.0781,-0.0781 -0.15629,-0.15629 -0.23444,-0.23444 0,-0.0391 0,-0.0391 -0.0391,-0.0781 -0.19537,-0.19537 -0.39074,-0.39074 -0.58611,-0.58611 -0.0391,0 -0.0391,0 -0.0391,0 -0.0781,-0.0781 -0.19537,-0.19536 -0.31259,-0.27351 0,0 0,0 0,0 -0.35166,-0.27352 -0.66425,-0.54703 -1.01591,-0.78147 0,0 0,0 0,0 -0.11722,-0.0782 -0.23444,-0.1563 -0.35166,-0.23444 0,0 0,0 0,0 0,0 0,0 0,0 -0.35166,-0.23444 -0.70332,-0.46888 -1.09406,-0.66425 0,0 -0.0391,0 -0.0391,0 -0.11722,-0.0781 -0.19537,-0.11722 -0.31259,-0.1563 0,-0.0391 -0.0391,-0.0391 -0.0391,-0.0391 -0.11722,-0.0391 -0.23444,-0.11722 -0.35166,-0.15629 0,0 0,0 -0.0391,0 -0.23444,-0.11722 -0.46888,-0.23445 -0.74239,-0.35167 0,0 0,0 0,0 -0.78147,-0.27351 -1.56294,-0.50795 -2.34441,-0.66425 -0.0391,0 -0.0391,0 -0.0391,0 -0.11722,-0.0391 -0.27351,-0.0391 -0.39073,-0.0781 -0.54703,-0.0781 -1.09406,-0.1563 -1.64109,-0.1563 -0.11722,0 -0.19537,0 -0.31259,-0.0391 -0.11722,0 -0.19537,0 -0.31259,0 -0.0781,0 -0.15629,0 -0.27351,0 -0.27351,0.0391 -0.5861,0.0391 -0.85962,0.0781 -0.0391,0 -0.0391,0 -0.0781,0 -0.11722,0 -0.23445,0 -0.35167,0.0391 -0.0391,0 -0.0391,0 -0.0781,0 -0.31259,0.0391 -0.58611,0.0781 -0.89869,0.11722 0,0 -0.0391,0 -0.0391,0.0391 -0.31258,0.0391 -0.5861,0.0782 -0.85961,0.1563 0,0 0,0 -0.0391,0.0391 -0.0781,0 -0.19536,0.0391 -0.27351,0.0782 -0.0391,0 -0.0781,0 -0.0781,0 -0.11722,0.0391 -0.19537,0.0781 -0.27351,0.0781 -0.0391,0 -0.0782,0.0391 -0.0782,0.0391 -0.11722,0.0391 -0.19537,0.0391 -0.27351,0.0781 -0.0391,0 -0.0391,0 -0.0781,0.0391 -0.11722,0.0391 -0.19537,0.0391 -0.31259,0.0782 0,0.0391 0,0.0391 -0.0391,0.0391 -0.70333,0.23444 -1.36758,0.5861 -2.03183,0.93777 0,0 0,0 0,0 -0.15629,0.11722 -0.31258,0.19536 -0.46888,0.31258 0,0 0,0 -0.0391,0 -0.23444,0.1563 -0.50796,0.31259 -0.7424,0.50796 0,0 -0.0391,0 -0.0391,0 -0.0781,0.0782 -0.19537,0.15629 -0.27352,0.23444 0,0 0,0 0,0 -0.5861,0.46888 -1.13313,0.93776 -1.68016,1.48479 0,0 0,0 0,0 -0.4298,0.46888 -0.82054,0.93777 -1.21127,1.4848 0,0 0,0 0,0 -0.27352,0.35166 -0.50796,0.70332 -0.70333,1.09405 0,0 -0.0391,0.0391 -0.0391,0.0391 -0.11722,0.23444 -0.27352,0.46888 -0.39074,0.70332 0,0.0391 0,0.0391 -0.0391,0.0782 -0.0391,0.0781 -0.0781,0.15629 -0.11722,0.27351 0,0.0391 -0.0391,0.0781 -0.0391,0.0781 -0.0391,0.11722 -0.0781,0.19537 -0.11722,0.27351 -0.0391,0.0391 -0.0391,0.0781 -0.0391,0.0781 -0.11722,0.27351 -0.19537,0.50796 -0.31259,0.7424 0,0 0,0.0391 0,0.0391 -0.23444,0.62518 -0.4298,1.28943 -0.54702,1.95368 v 0 c 0,0 0,0 0,0 -0.0391,0.11722 -0.0391,0.23444 -0.0781,0.39073 0,0 0,0 0,0.0391 -0.0391,0.11722 -0.0391,0.23444 -0.0781,0.39074 0,0 0,0 0,0 0,0.15629 -0.0391,0.31259 -0.0391,0.46888 0,0 0,0.0391 -0.0391,0.0781 0,0.15629 0,0.31259 -0.0391,0.46888 0,0.31259 0,0.66425 0,0.97684 0,4.4153 2.03182,8.4008 5.27492,10.94058 2.38349,1.9146 5.43122,3.04773 8.71339,3.04773 2.30534,0 4.49346,-0.54703 6.40806,-1.52387 3.20403,-1.68016 5.66566,-4.49345 6.83786,-7.93192 0.50796,-1.44572 0.78147,-2.96958 0.78147,-4.53252 0,-2.77422 -0.82054,-5.35307 -2.18811,-7.50211 z m -11.83928,14.69163 c -3.94642,0 -7.18952,-3.2431 -7.18952,-7.18952 0,-1.28943 0.35166,-2.50071 0.93776,-3.51662 0.0391,-0.0781 0.0782,-0.15629 0.11722,-0.23444 0.0391,-0.0391 0.0391,-0.0391 0.0391,-0.0781 0.0391,-0.0391 0.0781,-0.11722 0.11722,-0.15629 0,-0.0391 0.0391,-0.0391 0.0391,-0.0781 0.0391,-0.0391 0.0782,-0.11722 0.11722,-0.15629 0.0391,-0.0391 0.0391,-0.0391 0.0391,-0.0781 0.0781,-0.0781 0.11722,-0.11722 0.19536,-0.19537 0.0391,-0.0781 0.11722,-0.15629 0.19537,-0.27351 0,0 0.0391,0 0.0391,-0.0391 0.0781,-0.0781 0.1563,-0.1563 0.23445,-0.23444 0,0 0,0 0,0 0.0391,-0.0391 0.11722,-0.11722 0.15629,-0.1563 0,-0.0391 0.0391,-0.0391 0.0391,-0.0391 0.0391,-0.0391 0.0781,-0.0781 0.1563,-0.11722 0,-0.0391 0.0391,-0.0391 0.0391,-0.0391 0.0391,-0.0781 0.0781,-0.11722 0.11722,-0.15629 0.0391,0 0.0391,0 0.0781,-0.0391 0.0391,-0.0391 0.0781,-0.0781 0.11722,-0.0781 0.0391,-0.0391 0.0391,-0.0391 0.0781,-0.0781 0.0391,0 0.0781,-0.0391 0.11722,-0.0781 0.0391,-0.0391 0.0391,-0.0391 0.0781,-0.0391 0.0391,-0.0391 0.0781,-0.0781 0.11722,-0.11722 0.0391,0 0.0781,0 0.0781,-0.0391 0.0391,-0.0391 0.11722,-0.0391 0.15629,-0.0781 0,-0.0391 0.0391,-0.0391 0.0391,-0.0391 0.0782,-0.0391 0.11722,-0.0782 0.15629,-0.11722 0.0391,0 0.0391,0 0.0781,0 0.0391,-0.0391 0.0781,-0.0782 0.15629,-0.11722 0,0 0.0391,0 0.0391,0 0.0781,-0.0391 0.11722,-0.0781 0.19536,-0.11722 0,0 0,0 0.0391,0 0.0391,-0.0391 0.11722,-0.0781 0.19537,-0.0781 0,-0.0391 0,-0.0391 0.0391,-0.0391 0.0391,-0.0391 0.11722,-0.0391 0.19537,-0.0781 0,0 0,0 0,0 0.31258,-0.11722 0.66425,-0.23444 0.97683,-0.31259 0.11722,-0.0391 0.23444,-0.0391 0.31259,-0.0781 0.0391,0 0.0391,0 0.0781,0 0.0781,-0.0391 0.19537,-0.0391 0.31259,-0.0391 v 0 c 0.15629,-0.0391 0.31258,-0.0391 0.46888,-0.0781 0.0391,0 0.0391,0 0.0391,0 0.0781,0 0.1563,0 0.23444,0 0.0781,0 0.1563,0 0.23444,0 0.0781,0 0.19537,0 0.27352,0 0.0781,0 0.19537,0 0.27351,0 0,0 0,0 0,0 0.11722,0.0391 0.23444,0.0391 0.31259,0.0391 0.0782,0 0.19537,0.0391 0.27352,0.0391 0,0 0.0391,0 0.0391,0 0.0782,0.0391 0.15629,0.0391 0.23444,0.0781 0.0391,0 0.0391,0 0.0391,0 0.0781,0 0.19537,0.0391 0.27352,0.0391 0,0 0,0 0.0391,0 0.0781,0.0391 0.1563,0.0391 0.23444,0.0781 0.0781,0.0391 0.19537,0.0781 0.27352,0.0781 0,0 0,0 0,0 0.11722,0.0391 0.19537,0.0782 0.27351,0.11723 0.39074,0.11722 0.7424,0.31258 1.05499,0.50795 0.11722,0.0391 0.19536,0.0782 0.27351,0.15629 0,0 0,0 0,0 0.0781,0.0391 0.1563,0.11723 0.27352,0.1563 0.23444,0.19537 0.46888,0.39073 0.70332,0.5861 0,0 0,0 0,0 0.0782,0.0781 0.15629,0.1563 0.23444,0.23444 0.0781,0.0781 0.15629,0.1563 0.23444,0.23444 0,0 0,0 0,0 0.0781,0.0781 0.15629,0.1563 0.19537,0.23444 0,0 0,0 0,0 0.31259,0.35167 0.54703,0.7424 0.78147,1.13314 0,0 0,0 0,0 0.0781,0.11722 0.11722,0.23444 0.15629,0.31258 0.0391,0 0.0391,0.0391 0.0391,0.0391 0.0391,0.11722 0.0781,0.19536 0.15629,0.31259 0.0781,0.27351 0.15629,0.50795 0.23444,0.74239 0,0.0391 0.0391,0.0391 0.0391,0.0391 0,0.11722 0.0391,0.23444 0.0781,0.35166 0,0 0,0.0391 0,0.0391 0.0391,0.11722 0.0781,0.23444 0.0781,0.39074 0,0 0,0.0391 0.0391,0.0391 0.0391,0.39073 0.0781,0.78147 0.0781,1.21128 0,3.94642 -3.20403,7.18952 -7.18953,7.18952 z"
           style="font-family:Fattern;-inkscape-font-specification:Fattern;fill:#ffffff;fill-opacity:1"
           id="path11910" />
        <path
           d="m 199.49047,178.78284 c 0,0 0,0 0,0 0,-0.0391 0,-0.0391 0,-0.0391 0,0 0,0 0,0 0,0 0,0 0,-0.0391 0,0 0,0 0,0 0,0 0.0391,0 0.0391,-0.0391 0,0 0,0 0,0 0,0 0,0 0,0 0,0 0,-0.0391 0,-0.0391 0,0 0,0 0,0 0,0 0,0 0,-0.0391 0,0 0,0 0,0 0,0 0,0 0,0 0,-0.0391 0,-0.0391 0,-0.0391 0,0 0,0 0,0 0.0391,-0.0391 0.0391,-0.0391 0.0391,-0.0781 0,0 0,0 0,0 0,0 0,-0.0391 0,-0.0391 0,0 0,0 0,0 0,-0.0391 0,-0.0391 0,-0.0391 0,-0.0391 0,-0.0391 0,-0.0391 0,0 0,-0.0391 0,-0.0391 0,0 0,0 0,-0.0391 0,0 0,-0.0391 0,-0.0391 0,0 0,0 0,0 0.0391,-0.54703 0.0391,-1.68016 0.0391,-4.37623 0,0 0,0 0,0 0,-0.11722 0,-0.23444 0,-0.35166 0,-0.0391 0,-0.0782 0,-0.11722 0,-2.18812 0,-5.314 0,-9.84652 0,-0.78147 0,-1.64109 0,-2.53978 0,-0.93777 0,-1.9146 0,-2.96959 0,-1.87553 -1.52387,-3.39939 -3.3994,-3.39939 -1.83645,0 -3.36032,1.48479 -3.39939,3.28217 0,0.0391 0,0.0782 0,0.11722 v 10.51077 c -0.19537,-0.23444 -0.39074,-0.46888 -0.54703,-0.66425 -0.11722,-0.11722 -0.23444,-0.23444 -0.31259,-0.35166 -0.0391,-0.0391 -0.0781,-0.11722 -0.11722,-0.15629 -0.15629,-0.1563 -0.27351,-0.27352 -0.39073,-0.42981 0,-0.0391 -0.0391,-0.0391 -0.0391,-0.0781 -0.11722,-0.11722 -0.23444,-0.27351 -0.35166,-0.39073 -0.0391,-0.0391 -0.0781,-0.0782 -0.0781,-0.11722 -0.66425,-0.7424 -1.25035,-1.44572 -1.79738,-2.10997 -1.68016,-1.95368 -2.96958,-3.47754 -3.94642,-4.68882 -0.0782,-0.0391 -0.11722,-0.11722 -0.19537,-0.19537 0,0 0,0 0,0 -0.15629,-0.19537 -0.31259,-0.39073 -0.46888,-0.54703 0,-0.0391 -0.0391,-0.0391 -0.0391,-0.0781 -0.0781,-0.0391 -0.11722,-0.11723 -0.19537,-0.19537 0,0 0,-0.0391 -0.0391,-0.0391 -0.0391,-0.0781 -0.11723,-0.15629 -0.1563,-0.23444 0,0 0,0 -0.0391,0 0,0 0,0 0,0 -0.0781,-0.0781 -0.11722,-0.15629 -0.19537,-0.27351 0,0 -0.0391,0 -0.0391,-0.0391 -0.0782,-0.0781 -0.1563,-0.1563 -0.19537,-0.23445 0,0 0,0 0,0 -0.1563,-0.15629 -0.27352,-0.31258 -0.42981,-0.46888 0,0 0,0 0,0 -0.0782,-0.0781 -0.11722,-0.15629 -0.15629,-0.19537 0,0 0,-0.0391 -0.0391,-0.0391 -0.0391,-0.0391 -0.0781,-0.11722 -0.15629,-0.15629 0,0 0,0 0,-0.0391 -0.11722,-0.11722 -0.19537,-0.23444 -0.27352,-0.31258 0,0 0,0 -0.0391,0 -0.0391,-0.0782 -0.0781,-0.11722 -0.11722,-0.1563 0,0 0,0 0,0 -0.0391,-0.0781 -0.0781,-0.11722 -0.11722,-0.15629 0,0 0,0 0,0 -0.11722,-0.11722 -0.23444,-0.23444 -0.31259,-0.35166 0,0 0,0 0,0 -0.0391,-0.0391 -0.0391,-0.0391 -0.0781,-0.0781 0,0 0,0 0,0 -0.0781,-0.0781 -0.15629,-0.15629 -0.23444,-0.23444 0,0 0,0 0,0 0,-0.0391 -0.0391,-0.0391 -0.0391,-0.0391 0,0 0,-0.0391 0,-0.0391 -0.0781,-0.0391 -0.11722,-0.0781 -0.15629,-0.11722 0,0 0,0 0,0 -0.0391,0 -0.0391,-0.0391 -0.0391,-0.0391 0,0 0,0 0,0 -0.0391,-0.0391 -0.0781,-0.0781 -0.11722,-0.0781 0,0 0,0 0,0 -0.0391,0 -0.0391,-0.0391 -0.0391,-0.0391 0,0 0,0 0,0 -0.0391,0 -0.0391,0 -0.0391,0 0,0 0,0 0,0 -0.0391,-0.0391 -0.0391,-0.0391 -0.0781,-0.0391 0,0 0,0 0,0 0,-0.0391 -0.0391,-0.0391 -0.0391,-0.0391 0,0 0,0 -0.0391,0 0,0 0,0 0,-0.0391 0,0 -0.0391,0 -0.0391,0 -0.0781,-0.0391 -0.1563,-0.0782 -0.19537,-0.11722 -0.0391,0 -0.0391,0 -0.0781,0 -0.0391,-0.0391 -0.0781,-0.0391 -0.15629,-0.0782 0,0 -0.0391,0 -0.0781,-0.0391 -0.0391,0 -0.0781,0 -0.11722,-0.0391 -0.0391,0 -0.0391,0 -0.0781,-0.0391 -0.0391,0 -0.0781,0 -0.11722,0 -0.0391,-0.0391 -0.0781,-0.0391 -0.0781,-0.0391 -0.0391,0 -0.0782,0 -0.11722,-0.0391 -0.0391,0 -0.0781,0 -0.11722,0 -0.0391,0 -0.0781,0 -0.11722,0 -0.0391,0 -0.0391,-0.0391 -0.0781,-0.0391 -0.0391,0 -0.11722,0 -0.1563,0 -0.0391,0 -0.0391,0 -0.0391,0 -0.0782,0 -0.15629,0 -0.19537,0 -0.0391,0 -0.0391,0 -0.0781,0 -0.0391,0 -0.0781,0 -0.11722,0 -0.0391,0 -0.0781,0 -0.0781,0.0391 -0.0391,0 -0.11722,0 -0.15629,0 0,0 -0.0391,0 -0.0391,0 -0.0781,0 -0.11722,0.0391 -0.19537,0.0391 0,0 -0.0391,0 -0.0391,0 -0.0391,0.0391 -0.11722,0.0391 -0.15629,0.0391 0,0.0391 -0.0391,0.0391 -0.0782,0.0391 -0.0391,0 -0.0781,0.0391 -0.11722,0.0391 0,0 -0.0391,0 -0.0391,0 -0.0781,0.0391 -0.11722,0.0391 -0.1563,0.0781 0,0 -0.0391,0 -0.0391,0 -0.0391,0.0391 -0.11722,0.0781 -0.1563,0.0781 -0.0391,0.0391 -0.0391,0.0391 -0.0781,0.0391 -0.0391,0.0391 -0.0781,0.0391 -0.11722,0.0781 0,0 -0.0391,0 -0.0391,0.0391 -0.0391,0 -0.0781,0.0391 -0.11722,0.0781 -0.0391,0 -0.0391,0 -0.0781,0 -0.0391,0.0391 -0.0781,0.0781 -0.11722,0.11722 -0.0391,0 -0.0391,0.0391 -0.0391,0.0391 -0.0391,0.0391 -0.0781,0.0781 -0.11722,0.0781 -0.0391,0.0391 -0.0391,0.0391 -0.0781,0.0781 0,0 -0.0391,0.0391 -0.0781,0.0781 -0.0391,0 -0.0391,0.0391 -0.0391,0.0391 -0.0391,0.0391 -0.0781,0.0781 -0.11722,0.11722 0,0 -0.0391,0 -0.0391,0.0391 -0.0391,0.0391 -0.0781,0.0782 -0.11722,0.1563 0,0 0,0 -0.0391,0.0391 -0.0391,0.0391 -0.0391,0.0781 -0.0781,0.11722 0,0 -0.0391,0.0391 -0.0391,0.0391 -0.0391,0.0391 -0.0391,0.0781 -0.0781,0.11722 0,0 0,0.0391 -0.0391,0.0391 -0.0391,0.0781 -0.0391,0.11722 -0.0781,0.19537 0,0 0,0 0,0 -0.0391,0.0781 -0.0781,0.11722 -0.0781,0.15629 0,0.0391 -0.0391,0.0391 -0.0391,0.0781 0,0.0391 -0.0391,0.0781 -0.0391,0.11722 0,0.0391 -0.0391,0.0391 -0.0391,0.0781 0,0.0391 -0.0391,0.0781 -0.0391,0.1563 0,0 0,0.0391 0,0.0391 -0.0391,0.0781 -0.0391,0.11722 -0.0781,0.19537 0,0 0,0.0391 0,0.0391 0,0.0781 0,0.11722 -0.0391,0.1563 0,0.0391 0,0.0781 0,0.0781 0,0.0391 0,0.11722 0,0.1563 0,0.0391 0,0.0391 0,0.0781 0,0.0781 0,0.11723 0,0.19537 V 177.806 c 0,0.0781 0,0.11722 0,0.1563 0,0.0391 0,0.0391 0,0.0781 0,0.0391 0,0.0782 0,0.11723 0,0 0,0.0391 0,0.0391 0,0.0391 0,0.0781 0,0.11722 0,0 0.0391,0.0391 0.0391,0.0391 0,0.0391 0,0.0782 0,0.11722 0,0 0,0.0391 0,0.0391 0.0391,0.0391 0.0391,0.0781 0.0391,0.11722 0,0 0,0.0391 0,0.0391 0.0391,0.0782 0.0391,0.11722 0.0391,0.15629 0,0 0.0391,0.0391 0.0391,0.0391 0,0.0391 0,0.0782 0.0391,0.11722 0,0 0,0.0391 0,0.0391 0.0391,0.0391 0.0391,0.0781 0.0391,0.11722 0,0 0.0391,0.0391 0.0391,0.0391 0,0.0391 0,0.0781 0.0391,0.0781 0,0.0391 0,0.0391 0,0.0781 0.0391,0 0.0391,0.0391 0.0391,0.0781 0.0391,0 0.0391,0.0391 0.0391,0.0391 0.0391,0.0391 0.0391,0.0781 0.0391,0.0781 0.0391,0.0391 0.0391,0.0391 0.0391,0.0781 0.0391,0 0.0391,0.0391 0.0391,0.0782 0.0391,0.0391 0.0782,0.0781 0.11722,0.11722 0,0 0,0.0391 0,0.0391 0.0391,0.0391 0.0391,0.0391 0.0781,0.0781 0,0 0,0.0391 0.0391,0.0391 0,0.0391 0.0391,0.0391 0.0391,0.0781 0.0391,0 0.0391,0 0.0391,0.0391 0.0391,0 0.0391,0.0391 0.0782,0.0781 0,0 0,0 0.0391,0.0391 0,0 0.0391,0.0391 0.0781,0.0391 0,0.0391 0,0.0391 0,0.0391 0.0781,0.0781 0.19536,0.1563 0.27351,0.23445 0.0391,0 0.0391,0 0.0391,0.0391 0.0391,0 0.0391,0.0391 0.0781,0.0391 0,0.0391 0.0391,0.0391 0.0391,0.0391 0.0391,0 0.0391,0.0391 0.0781,0.0391 0.0391,0.0391 0.0391,0.0391 0.0391,0.0391 0.0391,0 0.0781,0.0391 0.11722,0.0391 0,0.0391 0,0.0391 0,0.0391 0.19536,0.11722 0.39073,0.19537 0.62517,0.27351 0,0 0,0 0,0 0.0391,0 0.0781,0.0391 0.11722,0.0391 0.0391,0 0.0391,0 0.0391,0 0.0391,0 0.0781,0.0391 0.11722,0.0391 0,0 0,0 0,0 0.27351,0.0781 0.54703,0.0781 0.82054,0.0781 0.27352,0 0.54703,0 0.78147,-0.0781 0.0391,0 0.11722,-0.0391 0.15629,-0.0391 0,0 0,0 0,0 0.0391,0 0.0781,-0.0391 0.11723,-0.0391 0,0 0,0 0.0391,0 0.19537,-0.0781 0.42981,-0.15629 0.62517,-0.27351 0,0 0,0 0,-0.0391 0.0391,0 0.0782,-0.0391 0.11723,-0.0391 0,0 0,0 0,-0.0391 0.0391,0 0.0781,-0.0391 0.11722,-0.0391 0,0 0,0 0,-0.0391 0.0391,0 0.0781,-0.0391 0.11722,-0.0391 0,-0.0391 0,-0.0391 0,-0.0391 0.11722,-0.0781 0.19536,-0.1563 0.27351,-0.23445 0.0391,0 0.0391,0 0.0391,-0.0391 0.0391,0 0.0391,-0.0391 0.0781,-0.0391 0,-0.0391 0,-0.0391 0.0391,-0.0391 0,-0.0391 0.0391,-0.0781 0.0391,-0.0781 0.0391,-0.0391 0.0391,-0.0391 0.0391,-0.0391 0.0391,-0.0391 0.0391,-0.0391 0.0781,-0.0781 0,0 0,-0.0391 0.0391,-0.0391 0,-0.0391 0.0391,-0.0391 0.0391,-0.0781 0,0 0.0391,-0.0391 0.0391,-0.0391 0.0391,-0.0391 0.0391,-0.0781 0.0781,-0.11722 0,-0.0391 0.0391,-0.0782 0.0391,-0.0782 0.0391,-0.0391 0.0391,-0.0391 0.0391,-0.0781 0,0 0.0391,-0.0391 0.0391,-0.0781 0,0 0.0391,-0.0391 0.0391,-0.0391 0,-0.0391 0.0391,-0.0781 0.0391,-0.0781 0,-0.0391 0.0391,-0.0391 0.0391,-0.0781 0,0 0,-0.0391 0.0391,-0.0781 0,0 0,-0.0391 0,-0.0391 0.0391,-0.0391 0.0391,-0.0781 0.0391,-0.11722 0,0 0.0391,-0.0391 0.0391,-0.0391 0,-0.0391 0,-0.0781 0.0391,-0.11722 0,0 0,-0.0391 0,-0.0391 0,-0.0391 0.0391,-0.0781 0.0391,-0.15629 0,0 0,-0.0391 0,-0.0391 0.0391,-0.0391 0.0391,-0.0782 0.0391,-0.11722 0,0 0,-0.0391 0,-0.0391 0.0391,-0.0391 0.0391,-0.0781 0.0391,-0.11722 0,0 0,-0.0391 0,-0.0391 0,-0.0391 0,-0.0782 0,-0.11722 0,0 0.0391,-0.0391 0.0391,-0.0391 0,-0.0391 0,-0.0781 0,-0.11723 0,-0.0391 0,-0.0391 0,-0.0781 0,-0.0391 0,-0.0781 0,-0.1563 v -10.47169 c 0.15629,0.15629 0.31258,0.35166 0.46888,0.54702 0.19536,0.23445 0.39073,0.46889 0.5861,0.70333 0.62518,0.74239 1.36757,1.60201 2.10997,2.5007 0.11722,0.1563 0.27351,0.27352 0.39073,0.42981 0.78147,0.93776 1.56294,1.87553 2.38349,2.81329 0.11722,0.1563 0.23444,0.31259 0.39073,0.46888 0.0391,0.0782 0.11722,0.1563 0.19537,0.23445 0.0391,0.0781 0.11722,0.11722 0.15629,0.19536 0.0781,0.0781 0.1563,0.1563 0.23445,0.27352 1.25035,1.44572 2.34441,2.77422 3.0868,3.59476 0,0.0391 0.0391,0.0391 0.0391,0.0781 0.46888,0.54703 0.74239,0.85961 0.74239,0.89869 0.1563,0.15629 0.27352,0.27351 0.42981,0.39073 0.0391,0 0.0391,0.0391 0.0391,0.0391 0.39074,0.31258 0.85962,0.54702 1.36758,0.62517 0,0 0,0 0,0 0.0781,0.0391 0.11722,0.0391 0.19536,0.0391 0,0 0,0 0,0 0.0781,0.0391 0.11722,0.0391 0.19537,0.0391 0,0 0,0 0,0 0.0781,0 0.11722,0 0.19537,0 1.40665,0.0781 2.85236,-0.7424 3.36032,-2.26626 0,-0.0391 0.0391,-0.0391 0.0391,-0.0391 0,-0.0391 0,-0.0781 0.0391,-0.11722 0,0 0,0 0,0 z"
           style="font-family:Fattern;-inkscape-font-specification:Fattern;fill:#ffffff;fill-opacity:1"
           id="path11912" />
      </g>
      <path
         style="fill:#ffffff;fill-opacity:1;stroke-width:0.133754"
         d="m 208.3152,213.48935 c -0.2758,-3.56496 -0.37466,-3.96978 -1.03017,-4.219 -0.16147,-0.0614 -1.48812,-0.21075 -2.94811,-0.33192 -2.43534,-0.20209 -3.36006,-0.33112 -2.37282,-0.33112 0.21624,0 1.5053,-0.0892 2.86457,-0.19826 3.40027,-0.27275 3.09942,0.13016 3.49725,-4.68379 0.0912,-1.10349 0.18097,-1.91605 0.1995,-1.80569 0.0184,0.11033 0.12888,1.39759 0.2452,2.86049 0.11631,1.46294 0.27078,2.77069 0.34326,2.90611 0.0725,0.13542 0.24737,0.30809 0.38865,0.38369 0.14128,0.0756 1.5347,0.23904 3.09649,0.36315 1.56182,0.12415 2.78406,0.24172 2.71611,0.26132 -0.14547,0.0419 -5.05066,0.44799 -5.41217,0.44799 -0.13598,0 -0.39785,0.13543 -0.5819,0.30095 -0.32138,0.289 -0.34322,0.41237 -0.55051,3.10979 -0.11872,1.54487 -0.2325,2.86905 -0.25282,2.9426 -0.0204,0.0736 -0.11147,-0.82928 -0.20253,-2.00631 z"
         id="path12274" />
      <path
         style="display:inline;fill:#ffffff;fill-opacity:1;stroke-width:0.0510758"
         d="m 199.4688,215.88657 c 0.0761,-0.1026 0.44746,-0.55208 0.82505,-0.99882 0.37755,-0.44681 0.67496,-0.82387 0.66085,-0.83798 -0.0141,-0.0141 -0.26297,-0.0436 -0.55302,-0.0655 -1.27751,-0.0964 -1.31695,-0.14737 -0.12331,-0.15936 0.59923,-0.006 0.71802,-0.0224 0.65094,-0.0894 -0.0871,-0.0871 -1.50891,-1.78813 -1.58489,-1.89612 -0.0248,-0.0347 0.40605,0.31349 0.95704,0.77435 0.55098,0.46087 1.01378,0.83796 1.02846,0.83796 0.0147,0 0.0539,-0.32464 0.0874,-0.72141 0.10016,-1.19038 0.13944,-1.13444 0.16542,0.23554 l 0.01,0.50204 0.83403,-0.70513 c 1.25255,-1.05902 1.27107,-1.06384 0.47607,-0.12403 -0.38232,0.45197 -0.76239,0.90815 -0.84463,1.01376 l -0.14947,0.19203 0.61088,0.0482 c 0.33597,0.0265 0.72273,0.0663 0.85948,0.0885 l 0.2486,0.0403 -0.30453,0.0165 c -0.1675,0.009 -0.55221,0.0208 -0.85494,0.026 -0.30274,0.006 -0.52667,0.0336 -0.49762,0.0632 0.0291,0.0296 0.37014,0.43535 0.75812,0.90151 0.38795,0.46618 0.74443,0.88982 0.79225,0.94134 0.0478,0.0515 0.0645,0.0836 0.0371,0.0713 -0.0531,-0.0237 -1.80018,-1.47795 -1.92197,-1.59973 -0.0831,-0.0831 -0.0663,-0.17572 -0.17973,0.99068 -0.0764,0.78582 -0.10171,0.71774 -0.11195,-0.30135 -0.004,-0.40315 -0.0327,-0.71014 -0.0636,-0.68219 -0.0308,0.028 -0.48233,0.40485 -1.00312,0.83754 -0.71715,0.59582 -0.91322,0.74147 -0.80829,0.60022 z"
         id="path12252-3" />
    </g>
  </g>
</svg>
